<?xml version="1.0" encoding="UTF-8" standalone="no"?>
<!-- Created with Inkscape (http://www.inkscape.org/) -->

<svg
   xmlns:dc="http://purl.org/dc/elements/1.1/"
   xmlns:cc="http://creativecommons.org/ns#"
   xmlns:rdf="http://www.w3.org/1999/02/22-rdf-syntax-ns#"
   xmlns:svg="http://www.w3.org/2000/svg"
   xmlns="http://www.w3.org/2000/svg"
   xmlns:xlink="http://www.w3.org/1999/xlink"
   xmlns:sodipodi="http://sodipodi.sourceforge.net/DTD/sodipodi-0.dtd"
   xmlns:inkscape="http://www.inkscape.org/namespaces/inkscape"
   width="478.81232"
   height="319.20819"
   id="svg2"
   sodipodi:version="0.32"
   inkscape:version="0.48.0 r9654"
   sodipodi:docname="Inverse_square_law_mk.svg"
   inkscape:output_extension="org.inkscape.output.svg.inkscape"
   version="1.0">
  <title
     id="title3087">Илустрација на законот на обратните квадрати</title>
  <defs
     id="defs4">
    <linearGradient
       inkscape:collect="always"
       id="linearGradient4066">
      <stop
         style="stop-color:#ff2a2a;stop-opacity:1;"
         offset="0"
         id="stop4068" />
      <stop
         style="stop-color:#ff2a2a;stop-opacity:0;"
         offset="1"
         id="stop4070" />
    </linearGradient>
    <linearGradient
       id="linearGradient3237">
      <stop
         style="stop-color:#6798ff;stop-opacity:1;"
         offset="0"
         id="stop3239" />
      <stop
         style="stop-color:#6798ff;stop-opacity:0;"
         offset="1"
         id="stop3241" />
    </linearGradient>
    <inkscape:perspective
       sodipodi:type="inkscape:persp3d"
       inkscape:vp_x="0 : 526.18109 : 1"
       inkscape:vp_y="0 : 1000 : 0"
       inkscape:vp_z="744.09448 : 526.18109 : 1"
       inkscape:persp3d-origin="372.04724 : 350.78739 : 1"
       id="perspective10" />
    <radialGradient
       inkscape:collect="always"
       xlink:href="#linearGradient3237"
       id="radialGradient3243"
       cx="148.9975"
       cy="111.91016"
       fx="148.9975"
       fy="111.91016"
       r="31.31473"
       gradientUnits="userSpaceOnUse" />
    <radialGradient
       inkscape:collect="always"
       xlink:href="#linearGradient4066"
       id="radialGradient4072"
       cx="247.32143"
       cy="262.89789"
       fx="247.32143"
       fy="262.89789"
       r="3.0816715"
       gradientTransform="matrix(1,0,0,1.4486573,0,-117.95105)"
       gradientUnits="userSpaceOnUse" />
    <radialGradient
       inkscape:collect="always"
       xlink:href="#linearGradient4066"
       id="radialGradient4076"
       gradientUnits="userSpaceOnUse"
       gradientTransform="matrix(1,0,0,1.4486573,0,-117.95105)"
       cx="247.32143"
       cy="262.89789"
       fx="247.32143"
       fy="262.89789"
       r="3.0816715" />
    <radialGradient
       inkscape:collect="always"
       xlink:href="#linearGradient4066"
       id="radialGradient4080"
       gradientUnits="userSpaceOnUse"
       gradientTransform="matrix(1,0,0,1.4486573,0,-117.95105)"
       cx="247.32143"
       cy="262.89789"
       fx="247.32143"
       fy="262.89789"
       r="3.0816715" />
    <radialGradient
       inkscape:collect="always"
       xlink:href="#linearGradient4066"
       id="radialGradient4084"
       gradientUnits="userSpaceOnUse"
       gradientTransform="matrix(1,0,0,1.4486573,0,-117.95105)"
       cx="247.32143"
       cy="262.89789"
       fx="247.32143"
       fy="262.89789"
       r="3.0816715" />
    <radialGradient
       inkscape:collect="always"
       xlink:href="#linearGradient4066"
       id="radialGradient4088"
       gradientUnits="userSpaceOnUse"
       gradientTransform="matrix(1,0,0,1.4486573,0,-117.95105)"
       cx="247.32143"
       cy="262.89789"
       fx="247.32143"
       fy="262.89789"
       r="3.0816715" />
    <radialGradient
       inkscape:collect="always"
       xlink:href="#linearGradient4066"
       id="radialGradient4092"
       gradientUnits="userSpaceOnUse"
       gradientTransform="matrix(1,0,0,1.4486573,0,-117.95105)"
       cx="247.32143"
       cy="262.89789"
       fx="247.32143"
       fy="262.89789"
       r="3.0816715" />
    <radialGradient
       inkscape:collect="always"
       xlink:href="#linearGradient4066"
       id="radialGradient4096"
       gradientUnits="userSpaceOnUse"
       gradientTransform="matrix(1,0,0,1.4486573,0,-117.95105)"
       cx="247.32143"
       cy="262.89789"
       fx="247.32143"
       fy="262.89789"
       r="3.0816715" />
    <radialGradient
       inkscape:collect="always"
       xlink:href="#linearGradient4066"
       id="radialGradient4100"
       gradientUnits="userSpaceOnUse"
       gradientTransform="matrix(1,0,0,1.4486573,0,-117.95105)"
       cx="247.32143"
       cy="262.89789"
       fx="247.32143"
       fy="262.89789"
       r="3.0816715" />
    <radialGradient
       inkscape:collect="always"
       xlink:href="#linearGradient4066"
       id="radialGradient4104"
       gradientUnits="userSpaceOnUse"
       gradientTransform="matrix(1,0,0,1.4486573,0,-117.95105)"
       cx="247.32143"
       cy="262.89789"
       fx="247.32143"
       fy="262.89789"
       r="3.0816715" />
    <radialGradient
       inkscape:collect="always"
       xlink:href="#linearGradient4066"
       id="radialGradient4108"
       gradientUnits="userSpaceOnUse"
       gradientTransform="matrix(1,0,0,1.4486573,0,-117.95105)"
       cx="247.32143"
       cy="262.89789"
       fx="247.32143"
       fy="262.89789"
       r="3.0816715" />
    <radialGradient
       inkscape:collect="always"
       xlink:href="#linearGradient4066"
       id="radialGradient4112"
       gradientUnits="userSpaceOnUse"
       gradientTransform="matrix(1,0,0,1.4486573,0,-117.95105)"
       cx="247.32143"
       cy="262.89789"
       fx="247.32143"
       fy="262.89789"
       r="3.0816715" />
    <radialGradient
       inkscape:collect="always"
       xlink:href="#linearGradient4066"
       id="radialGradient4116"
       gradientUnits="userSpaceOnUse"
       gradientTransform="matrix(1,0,0,1.4486573,0,-117.95105)"
       cx="247.32143"
       cy="262.89789"
       fx="247.32143"
       fy="262.89789"
       r="3.0816715" />
    <radialGradient
       inkscape:collect="always"
       xlink:href="#linearGradient4066"
       id="radialGradient4120"
       gradientUnits="userSpaceOnUse"
       gradientTransform="matrix(1,0,0,1.4486573,0,-117.95105)"
       cx="247.32143"
       cy="262.89789"
       fx="247.32143"
       fy="262.89789"
       r="3.0816715" />
    <radialGradient
       inkscape:collect="always"
       xlink:href="#linearGradient4066"
       id="radialGradient4124"
       gradientUnits="userSpaceOnUse"
       gradientTransform="matrix(1,0,0,1.4486573,0,-117.95105)"
       cx="247.32143"
       cy="262.89789"
       fx="247.32143"
       fy="262.89789"
       r="3.0816715" />
    <radialGradient
       inkscape:collect="always"
       xlink:href="#linearGradient4066"
       id="radialGradient4128"
       gradientUnits="userSpaceOnUse"
       gradientTransform="matrix(1,0,0,1.4486573,0,-117.95105)"
       cx="247.32143"
       cy="262.89789"
       fx="247.32143"
       fy="262.89789"
       r="3.0816715" />
    <radialGradient
       inkscape:collect="always"
       xlink:href="#linearGradient4066"
       id="radialGradient4132"
       gradientUnits="userSpaceOnUse"
       gradientTransform="matrix(1,0,0,1.4486573,0,-117.95105)"
       cx="247.32143"
       cy="262.89789"
       fx="247.32143"
       fy="262.89789"
       r="3.0816715" />
    <radialGradient
       inkscape:collect="always"
       xlink:href="#linearGradient4066"
       id="radialGradient4136"
       gradientUnits="userSpaceOnUse"
       gradientTransform="matrix(1,0,0,1.4486573,0,-117.95105)"
       cx="247.32143"
       cy="262.89789"
       fx="247.32143"
       fy="262.89789"
       r="3.0816715" />
    <radialGradient
       inkscape:collect="always"
       xlink:href="#linearGradient4066"
       id="radialGradient4140"
       gradientUnits="userSpaceOnUse"
       gradientTransform="matrix(1,0,0,1.4486573,0,-117.95105)"
       cx="247.32143"
       cy="262.89789"
       fx="247.32143"
       fy="262.89789"
       r="3.0816715" />
    <radialGradient
       inkscape:collect="always"
       xlink:href="#linearGradient4066"
       id="radialGradient4144"
       gradientUnits="userSpaceOnUse"
       gradientTransform="matrix(1,0,0,1.4486573,0,-117.95105)"
       cx="247.32143"
       cy="262.89789"
       fx="247.32143"
       fy="262.89789"
       r="3.0816715" />
    <radialGradient
       inkscape:collect="always"
       xlink:href="#linearGradient4066"
       id="radialGradient4148"
       gradientUnits="userSpaceOnUse"
       gradientTransform="matrix(1,0,0,1.4486573,0,-117.95105)"
       cx="247.32143"
       cy="262.89789"
       fx="247.32143"
       fy="262.89789"
       r="3.0816715" />
    <radialGradient
       inkscape:collect="always"
       xlink:href="#linearGradient4066"
       id="radialGradient4152"
       gradientUnits="userSpaceOnUse"
       gradientTransform="matrix(1,0,0,1.4486573,0,-117.95105)"
       cx="247.32143"
       cy="262.89789"
       fx="247.32143"
       fy="262.89789"
       r="3.0816715" />
    <radialGradient
       inkscape:collect="always"
       xlink:href="#linearGradient4066"
       id="radialGradient4156"
       gradientUnits="userSpaceOnUse"
       gradientTransform="matrix(1,0,0,1.4486573,0,-117.95105)"
       cx="247.32143"
       cy="262.89789"
       fx="247.32143"
       fy="262.89789"
       r="3.0816715" />
    <radialGradient
       inkscape:collect="always"
       xlink:href="#linearGradient4066"
       id="radialGradient4160"
       gradientUnits="userSpaceOnUse"
       gradientTransform="matrix(1,0,0,1.4486573,0,-117.95105)"
       cx="247.32143"
       cy="262.89789"
       fx="247.32143"
       fy="262.89789"
       r="3.0816715" />
    <radialGradient
       inkscape:collect="always"
       xlink:href="#linearGradient4066"
       id="radialGradient4164"
       gradientUnits="userSpaceOnUse"
       gradientTransform="matrix(1,0,0,1.4486573,0,-117.95105)"
       cx="247.32143"
       cy="262.89789"
       fx="247.32143"
       fy="262.89789"
       r="3.0816715" />
    <radialGradient
       inkscape:collect="always"
       xlink:href="#linearGradient4066"
       id="radialGradient4168"
       gradientUnits="userSpaceOnUse"
       gradientTransform="matrix(1,0,0,1.4486573,0,-117.95105)"
       cx="247.32143"
       cy="262.89789"
       fx="247.32143"
       fy="262.89789"
       r="3.0816715" />
    <radialGradient
       inkscape:collect="always"
       xlink:href="#linearGradient4066"
       id="radialGradient4172"
       gradientUnits="userSpaceOnUse"
       gradientTransform="matrix(1,0,0,1.4486573,0,-117.95105)"
       cx="247.32143"
       cy="262.89789"
       fx="247.32143"
       fy="262.89789"
       r="3.0816715" />
    <radialGradient
       inkscape:collect="always"
       xlink:href="#linearGradient4066"
       id="radialGradient4176"
       gradientUnits="userSpaceOnUse"
       gradientTransform="matrix(1,0,0,1.4486573,0,-117.95105)"
       cx="247.32143"
       cy="262.89789"
       fx="247.32143"
       fy="262.89789"
       r="3.0816715" />
  </defs>
  <sodipodi:namedview
     id="base"
     pagecolor="#ffffff"
     bordercolor="#666666"
     borderopacity="1.0"
     gridtolerance="10000"
     guidetolerance="10"
     objecttolerance="10"
     inkscape:pageopacity="0.0"
     inkscape:pageshadow="2"
     inkscape:zoom="1.4"
     inkscape:cx="78.923897"
     inkscape:cy="209.72038"
     inkscape:document-units="px"
     inkscape:current-layer="layer1"
     showgrid="false"
     inkscape:window-width="1440"
     inkscape:window-height="848"
     inkscape:window-x="-8"
     inkscape:window-y="-8"
     inkscape:window-maximized="1" />
  <metadata
     id="metadata7">
    <rdf:RDF>
      <cc:Work
         rdf:about="">
        <dc:format>image/svg+xml</dc:format>
        <dc:type
           rdf:resource="http://purl.org/dc/dcmitype/StillImage" />
        <dc:title>Илустрација на законот на обратните квадрати</dc:title>
        <dc:date>16 март 2011</dc:date>
        <dc:creator>
          <cc:Agent>
            <dc:title>Бојан Јанкулоски</dc:title>
          </cc:Agent>
        </dc:creator>
        <dc:source>http://commons.wikimedia.org/wiki/File:Inverse_square_law.svg</dc:source>
        <dc:subject>
          <rdf:Bag>
            <rdf:li>законот на обратните квадрати</rdf:li>
            <rdf:li>електромагнетно зрачење</rdf:li>
            <rdf:li>сјајност</rdf:li>
            <rdf:li>луминозитет</rdf:li>
          </rdf:Bag>
        </dc:subject>
        <dc:contributor>
          <cc:Agent>
            <dc:title>Илустрација на законот на обратните квадрати. „И“ е идеален извор на електромагнетно зрачење, a „П“ е произволен отсечок од површината на сфера со радиус r.</dc:title>
          </cc:Agent>
        </dc:contributor>
        <dc:language>македонски</dc:language>
      </cc:Work>
    </rdf:RDF>
  </metadata>
  <g
     inkscape:groupmode="layer"
     id="layer4"
     inkscape:label="Background"
     transform="translate(-91.923882,-63.42284)">
    <path
       style="fill:#ffffff;fill-opacity:1;stroke:none"
       d="m 91.923882,63.42284 478.812318,0 0,319.20819 -478.812318,0 z"
       id="rect4256" />
  </g>
  <g
     inkscape:label="Layer 1"
     inkscape:groupmode="layer"
     id="layer1"
     transform="translate(-91.923882,-63.42284)"
     style="display:inline"
     sodipodi:insensitive="true">
    <path
       transform="translate(2.8410541,-5.7452426)"
       style="fill:url(#radialGradient3243);fill-opacity:1;stroke:none"
       d="m 180.31223,111.91016 c 0,17.29464 -14.02008,31.31473 -31.31473,31.31473 -17.29465,0 -31.31473,-14.02009 -31.31473,-31.31473 0,-17.294651 14.02008,-31.314733 31.31473,-31.314733 17.29465,0 31.31473,14.020082 31.31473,31.314733 z"
       id="path3235"
       inkscape:connector-curvature="0" />
    <g
       id="g3221"
       transform="translate(15.152288,-5.555839)">
      <path
         sodipodi:nodetypes="ccccccscs"
         d="m 363.12152,134.4836 c 4.81978,33.41864 6.03898,67.66244 4.1611,102.47499 -21.54791,14.8872 -44.86058,23.52136 -68.40616,31.93237 1.83143,-39.39159 1.13521,-78.89462 -4.68887,-117.93148 23.14346,-3.9076 45.79048,-7.02351 68.93393,-16.47588 z m -31.0768,9.52987 c 3.1395,37.58962 4.2896,73.89748 3.12945,110.62717 m -35.67278,-46.69406 c 23.75472,-6.08723 45.58588,-13.44018 67.97554,-24.98765"
         style="fill:none;stroke:#000000;stroke-width:1;stroke-linecap:square;stroke-linejoin:miter;stroke-miterlimit:4;stroke-opacity:1;stroke-dashoffset:0"
         id="path3177"
         inkscape:connector-curvature="0" />
      <g
         transform="translate(90,72.142857)"
         id="g3168">
        <path
           style="fill:none;stroke:#000000;stroke-width:1;stroke-linecap:square;stroke-linejoin:miter;stroke-miterlimit:4;stroke-opacity:1;stroke-dashoffset:0"
           d="m 295,101.64789 c 30.47619,-5.145672 60.95237,-9.63277 91.42856,-27.857142 5.53833,39.223582 9.08944,80.434372 0,134.285722 -26.57819,36.95421 -59.78734,52.35778 -91.42856,72.85714 5.89506,-60.29782 8.79683,-120.32352 0,-179.28572 z"
           id="rect2383"
           sodipodi:nodetypes="ccccc"
           inkscape:connector-curvature="0" />
        <path
           style="fill:none;stroke:#000000;stroke-width:1px;stroke-linecap:butt;stroke-linejoin:miter;stroke-opacity:1"
           d="m 332.85713,94.701876 c 4.59321,54.995144 4.92816,109.138644 0,162.229514"
           id="path3160"
           sodipodi:nodetypes="cc"
           inkscape:connector-curvature="0" />
        <path
           style="fill:none;stroke:#000000;stroke-width:1px;stroke-linecap:butt;stroke-linejoin:miter;stroke-opacity:1"
           d="m 363.92857,85.226758 c 6.89804,47.828612 6.43193,97.235262 0,147.920292"
           id="path3162"
           sodipodi:nodetypes="cc"
           inkscape:connector-curvature="0" />
        <path
           style="fill:none;stroke:#000000;stroke-width:1px;stroke-linecap:butt;stroke-linejoin:miter;stroke-opacity:1"
           d="m 299.76277,219.23143 c 32.13035,-11.03753 63.96344,-23.14522 91.4188,-51.01271"
           id="path3164"
           sodipodi:nodetypes="cc"
           inkscape:connector-curvature="0" />
        <path
           style="fill:none;stroke:#000000;stroke-width:1px;stroke-linecap:butt;stroke-linejoin:miter;stroke-opacity:1"
           d="m 299.51023,158.81356 c 31.80272,-8.14955 62.95826,-18.88784 91.92388,-38.3858"
           id="path3166"
           sodipodi:nodetypes="cc"
           inkscape:connector-curvature="0" />
      </g>
      <path
         sodipodi:nodetypes="ccccc"
         d="m 213.7927,186.84198 c 12.30695,-3.1537 23.84415,-6.73277 35.81629,-11.06211 -0.61127,-17.68877 -1.65291,-35.292 -3.17118,-53.16349 -12.62869,2.88004 -25.22844,4.89484 -37.82819,7.02221 2.83156,18.97897 4.48536,38.03043 5.18308,57.20339 z"
         style="fill:none;stroke:#000000;stroke-width:1;stroke-linecap:square;stroke-linejoin:miter;stroke-miterlimit:4;stroke-opacity:1;stroke-dashoffset:0"
         id="path3189"
         inkscape:connector-curvature="0" />
      <path
         sodipodi:nodetypes="cc"
         id="path3211"
         d="M 384.60559,352.98001 136.16638,111.50294"
         style="fill:none;stroke:#000000;stroke-width:1px;stroke-linecap:butt;stroke-linejoin:miter;stroke-opacity:1"
         inkscape:connector-curvature="0" />
      <path
         sodipodi:nodetypes="cc"
         id="path3213"
         d="M 136.25228,111.66659 476.27694,145.6462"
         style="fill:none;stroke:#000000;stroke-width:1px;stroke-linecap:butt;stroke-linejoin:miter;stroke-opacity:1"
         inkscape:connector-curvature="0" />
      <path
         sodipodi:nodetypes="cc"
         id="path3215"
         d="m 136.31423,111.66208 248.86434,62.12867"
         style="fill:none;stroke:#000000;stroke-width:1px;stroke-linecap:butt;stroke-linejoin:miter;stroke-opacity:1"
         inkscape:connector-curvature="0" />
      <path
         sodipodi:nodetypes="cccccc"
         id="path3219"
         d="m 249.3065,175.80791 49.80202,28.28873 m 67.85916,32.98978 23.70882,13.46718 m -254.40061,-138.89598 75.41713,42.78494"
         style="fill:none;stroke:#000000;stroke-width:1px;stroke-linecap:butt;stroke-linejoin:miter;stroke-opacity:1"
         inkscape:connector-curvature="0" />
    </g>
    <g
       style="font-size:16px;font-style:normal;font-weight:normal;text-align:start;text-anchor:start;fill:#000000;fill-opacity:1;stroke:none;font-family:Bitstream Vera Sans"
       id="text3245">
      <path
         d="m 223.89619,193.07648 0,-8.29688 1.26563,0 0,1.25781 c 0.32291,-0.58853 0.62109,-0.97655 0.89453,-1.16406 0.27343,-0.18749 0.57422,-0.28124 0.90234,-0.28125 0.47396,1e-5 0.95573,0.15105 1.44532,0.45313 l -0.48438,1.30468 c -0.34375,-0.20311 -0.6875,-0.30468 -1.03125,-0.30468 -0.30729,0 -0.58333,0.0924 -0.82812,0.27734 -0.2448,0.1849 -0.41928,0.44141 -0.52344,0.76953 -0.15625,0.50001 -0.23438,1.04688 -0.23438,1.64063 l 0,4.34375 z"
         id="path3903"
         inkscape:connector-curvature="0" />
    </g>
    <g
       style="font-size:16px;font-style:normal;font-weight:normal;text-align:start;text-anchor:start;fill:#000000;fill-opacity:1;stroke:none;font-family:Bitstream Vera Sans"
       id="text3249">
      <path
         d="m 309.03906,278.34821 0,1.35156 -7.57031,0 c -0.0104,-0.33854 0.0443,-0.66406 0.16406,-0.97656 0.19271,-0.51563 0.5013,-1.02344 0.92578,-1.52344 0.42448,-0.5 1.03776,-1.07812 1.83985,-1.73438 1.24478,-1.02083 2.08593,-1.82942 2.52343,-2.42578 0.4375,-0.59635 0.65625,-1.16015 0.65625,-1.6914 0,-0.55729 -0.19922,-1.02734 -0.59765,-1.41016 -0.39844,-0.3828 -0.91798,-0.57421 -1.5586,-0.57422 -0.67708,10e-6 -1.21875,0.20314 -1.625,0.60938 -0.40625,0.40625 -0.61198,0.96875 -0.61718,1.6875 l -1.44532,-0.14844 c 0.099,-1.07812 0.47136,-1.89973 1.11719,-2.46485 0.64583,-0.56509 1.51302,-0.84764 2.60156,-0.84765 1.09896,10e-6 1.96875,0.3047 2.60938,0.91406 0.64062,0.60939 0.96093,1.36459 0.96094,2.26563 -10e-6,0.45834 -0.0938,0.90886 -0.28125,1.35156 -0.18751,0.44271 -0.49871,0.90886 -0.9336,1.39844 -0.4349,0.48958 -1.15755,1.16146 -2.16797,2.01562 -0.84375,0.70834 -1.38541,1.18881 -1.625,1.44141 -0.23958,0.2526 -0.4375,0.50651 -0.59375,0.76172 z"
         id="path3898"
         inkscape:connector-curvature="0" />
      <path
         d="m 310.92969,279.69977 0,-8.29688 1.26562,0 0,1.25782 c 0.32292,-0.58854 0.62109,-0.97656 0.89453,-1.16407 0.27344,-0.18749 0.57422,-0.28124 0.90235,-0.28125 0.47395,10e-6 0.95572,0.15105 1.44531,0.45313 l -0.48438,1.30469 c -0.34375,-0.20312 -0.6875,-0.30468 -1.03125,-0.30469 -0.30729,10e-6 -0.58333,0.0924 -0.82812,0.27734 -0.24479,0.1849 -0.41927,0.44141 -0.52344,0.76953 -0.15625,0.50001 -0.23437,1.04688 -0.23437,1.64063 l 0,4.34375 z"
         id="path3900"
         inkscape:connector-curvature="0" />
    </g>
    <g
       style="font-size:16px;font-style:normal;font-weight:normal;text-align:start;text-anchor:start;fill:#000000;fill-opacity:1;stroke:none;font-family:Bitstream Vera Sans"
       id="text3253">
      <path
         d="m 390.94196,358.10492 1.40625,-0.1875 c 0.16145,0.79688 0.43619,1.3711 0.82421,1.72266 0.38802,0.35156 0.86068,0.52734 1.41797,0.52734 0.66146,0 1.22005,-0.22917 1.67578,-0.6875 0.45573,-0.45833 0.68359,-1.02604 0.6836,-1.70313 -10e-6,-0.64582 -0.21095,-1.17838 -0.63281,-1.59765 -0.42189,-0.41927 -0.95834,-0.6289 -1.60938,-0.62891 -0.26563,10e-6 -0.59636,0.0521 -0.99219,0.15625 l 0.15625,-1.23437 c 0.0937,0.0104 0.16927,0.0156 0.22657,0.0156 0.59895,1e-5 1.13801,-0.15624 1.61718,-0.46875 0.47916,-0.31249 0.71875,-0.79426 0.71875,-1.44531 0,-0.51562 -0.17448,-0.9427 -0.52343,-1.28125 -0.34897,-0.33853 -0.79949,-0.5078 -1.35157,-0.50781 -0.54688,1e-5 -1.0026,0.17188 -1.36718,0.51562 -0.36459,0.34376 -0.59897,0.85939 -0.70313,1.54688 l -1.40625,-0.25 c 0.17187,-0.9427 0.5625,-1.67317 1.17188,-2.19141 0.60937,-0.51822 1.36718,-0.77733 2.27343,-0.77734 0.625,1e-5 1.20052,0.13412 1.72657,0.40234 0.52603,0.26824 0.92837,0.63413 1.20703,1.09766 0.27864,0.46355 0.41796,0.95574 0.41797,1.47656 -10e-6,0.4948 -0.13282,0.94532 -0.39844,1.35156 -0.26563,0.40626 -0.65886,0.72918 -1.17969,0.96875 0.67708,0.15626 1.20312,0.48048 1.57813,0.97266 0.37499,0.49219 0.56249,1.10808 0.5625,1.84765 -10e-6,1.00001 -0.3646,1.84766 -1.09375,2.54297 -0.72918,0.69532 -1.65105,1.04297 -2.76563,1.04297 -1.00521,0 -1.83985,-0.29948 -2.50391,-0.89844 -0.66406,-0.59895 -1.04297,-1.37499 -1.13671,-2.32812 z"
         id="path3893"
         inkscape:connector-curvature="0" />
      <path
         d="m 400.21539,361.12836 0,-8.29688 1.26563,0 0,1.25781 c 0.32291,-0.58853 0.62109,-0.97655 0.89453,-1.16406 0.27343,-0.18749 0.57421,-0.28124 0.90234,-0.28125 0.47396,10e-6 0.95573,0.15105 1.44532,0.45313 l -0.48438,1.30468 c -0.34375,-0.20311 -0.6875,-0.30468 -1.03125,-0.30468 -0.30729,0 -0.58334,0.0924 -0.82812,0.27734 -0.2448,0.1849 -0.41928,0.44141 -0.52344,0.76953 -0.15625,0.50001 -0.23438,1.04688 -0.23438,1.64063 l 0,4.34375 z"
         id="path3895"
         inkscape:connector-curvature="0" />
    </g>
    <g
       style="font-size:16px;font-style:normal;font-weight:normal;text-align:start;text-anchor:start;fill:#000000;fill-opacity:1;stroke:#000000;stroke-opacity:1;font-family:Bitstream Vera Sans"
       id="text4201">
      <path
         d="m 140.67917,100.45703 1.375,0 0,9.07031 6.09375,-9.07031 1.52344,0 0,11.45313 -1.375,0 0,-9.04688 -6.10157,9.04688 -1.51562,0 z"
         id="path3890"
         inkscape:connector-curvature="0" />
    </g>
  </g>
  <g
     inkscape:groupmode="layer"
     id="layer3"
     inkscape:label="As"
     transform="translate(-91.923882,-63.42284)"
     sodipodi:insensitive="true">
    <g
       transform="matrix(0.9385893,-0.3442784,0,1.0654287,0,0)"
       style="font-size:36.47678375px;font-style:normal;font-weight:bold;text-align:start;text-anchor:start;fill:#f3fa18;fill-opacity:1;stroke:#eace2d;stroke-width:1;stroke-miterlimit:3.9000001;stroke-opacity:1;font-family:Bitstream Vera Sans"
       id="text4178">
      <path
         d="m 250.89713,210.46025 20.536,0 0,26.11083 -3.47313,0 0,-23.02954 -13.60755,0 0,23.02954 -3.45532,0 z"
         style="fill:#f3fa18;stroke:#eace2d"
         id="path3887"
         inkscape:connector-curvature="0" />
    </g>
    <g
       transform="matrix(0.9385893,-0.3442784,0,1.0654287,0,0)"
       style="font-size:36.47678375px;font-style:normal;font-weight:bold;text-align:start;text-anchor:start;fill:#ffff6f;fill-opacity:1;stroke:#eace2d;stroke-width:1;stroke-miterlimit:3.9000001;stroke-opacity:1;font-family:Bitstream Vera Sans"
       id="text4193">
      <path
         d="m 341.8481,260.04912 20.536,0 0,26.11082 -3.47313,0 0,-23.02953 -13.60755,0 0,23.02953 -3.45532,0 z"
         id="path3884"
         inkscape:connector-curvature="0" />
    </g>
    <g
       transform="matrix(0.9385893,-0.3442784,0,1.0654287,0,0)"
       style="font-size:36.47678375px;font-style:normal;font-weight:bold;text-align:start;text-anchor:start;fill:#ffff6f;fill-opacity:1;stroke:#eace2d;stroke-width:1;stroke-miterlimit:4;stroke-opacity:1;font-family:Bitstream Vera Sans"
       id="text4197">
      <path
         d="m 438.87822,313.52696 20.536,0 0,26.11083 -3.47313,0 0,-23.02954 -13.60755,0 0,23.02954 -3.45532,0 z"
         id="path3881"
         inkscape:connector-curvature="0" />
    </g>
  </g>
  <g
     inkscape:groupmode="layer"
     id="layer2"
     inkscape:label="2"
     transform="translate(-91.923882,-63.42284)">
    <path
       style="fill:none;stroke:#ff0000;stroke-width:1px;stroke-linecap:butt;stroke-linejoin:miter;stroke-opacity:1"
       d="m 375.75581,134.30163 103.17709,12.84722 m -220.24398,-27.42394 107.49311,13.38463 m 121.03681,15.07104 53.25986,6.63171 m -388.24656,-48.34297 100.00592,12.45236"
       id="path3258"
       sodipodi:nodetypes="cccccccc"
       inkscape:connector-curvature="0" />
    <path
       style="fill:none;stroke:#ff0000;stroke-width:1px;stroke-linecap:butt;stroke-linejoin:miter;stroke-opacity:1"
       d="m 322.56181,152.05243 78.32405,20.96084 m -168.37667,-45.06045 77.05641,20.6216 m 118.71103,31.76908 50.687,13.5647 m -326.73149,-87.43888 71.80436,19.21606"
       id="path3260"
       sodipodi:nodetypes="cccccccc"
       inkscape:connector-curvature="0" />
    <path
       style="fill:none;stroke:#ff0000;stroke-width:1px;stroke-linecap:butt;stroke-linejoin:miter;stroke-opacity:1"
       d="m 366.54758,177.20648 36.10918,11.91823 m -144.57115,-47.71729 52.99426,17.49133 m 176.38349,58.2173 47.22462,15.587 m -382.45584,-126.23373 72.33872,23.87619"
       id="path3262"
       sodipodi:nodetypes="cccccccc"
       inkscape:connector-curvature="0" />
    <path
       style="fill:none;stroke:#ff0000;stroke-width:1px;stroke-linecap:butt;stroke-linejoin:miter;stroke-opacity:1"
       d="m 336.94788,179.93235 67.34608,26.78412 m -164.28738,-65.33851 72.43326,28.80734 m 132.18784,52.57224 53.88879,21.43203 m -346.28433,-137.72025 73.05639,29.05515"
       id="path3264"
       sodipodi:nodetypes="cccccccc"
       inkscape:connector-curvature="0" />
    <path
       style="fill:none;stroke:#ff0000;stroke-width:1px;stroke-linecap:butt;stroke-linejoin:miter;stroke-opacity:1"
       d="m 345.97155,199.90366 59.41505,28.65399 M 244.86368,151.14256 313.42603,184.208 m 120.95782,58.3341 40.77335,19.66369 m -322.92506,-155.73647 73.88253,35.63119"
       id="path3266"
       sodipodi:nodetypes="cccccccc"
       inkscape:connector-curvature="0" />
    <path
       style="fill:none;stroke:#ff0000;stroke-width:1px;stroke-linecap:butt;stroke-linejoin:miter;stroke-opacity:1"
       d="m 371.27812,234.90506 34.41189,20.17712 m -147.40879,-86.43189 56.16775,32.93348 m 157.73824,92.48847 33.11578,19.41715 m -353.07085,-207.02007 74.6083,43.74594"
       id="path3268"
       sodipodi:nodetypes="cccccccc"
       inkscape:connector-curvature="0" />
    <path
       style="fill:none;stroke:#ff0000;stroke-width:1px;stroke-linecap:butt;stroke-linejoin:miter;stroke-opacity:1"
       d="m 352.36557,244.38403 52.66229,36.29031 M 247.60921,172.19497 314.844,218.5274 m 130.9824,90.26178 34.22139,23.58244 m -327.81565,-225.9023 75.47558,52.01127"
       id="path3270"
       sodipodi:nodetypes="cccccccc"
       inkscape:connector-curvature="0" />
    <path
       style="fill:none;stroke:#ff0000;stroke-width:1px;stroke-linecap:butt;stroke-linejoin:miter;stroke-opacity:1"
       d="m 322.97005,244.56182 80.41629,65.04055 M 232.10076,171.0669 l 82.55568,66.77089 m 99.22347,80.25176 38.25283,30.93881 m -299.9006,-242.55904 76.11089,61.55835"
       id="path3272"
       sodipodi:nodetypes="cccccccc"
       inkscape:connector-curvature="0" />
    <path
       style="fill:none;stroke:#ff0000;stroke-width:1px;stroke-linecap:butt;stroke-linejoin:miter;stroke-opacity:1"
       d="m 342.87957,143.60089 92.5535,18.02624 m -188.34333,-36.68281 84.99004,16.55314 m 114.63306,22.32659 72.1732,14.05685 m -366.6539,-71.41158 81.43484,15.86071"
       id="path3274"
       sodipodi:nodetypes="cccccccc"
       inkscape:connector-curvature="0" />
    <path
       transform="translate(75.91869,-18.180195)"
       style="fill:url(#radialGradient4072);fill-opacity:1;stroke:none"
       d="m 250.4031,262.89789 c 0,2.46556 -1.37971,4.46428 -3.08167,4.46428 -1.70196,0 -3.08168,-1.99872 -3.08168,-4.46428 0,-2.46556 1.37972,-4.46429 3.08168,-4.46429 1.70196,0 3.08167,1.99873 3.08167,4.46429 z"
       id="path4054"
       inkscape:connector-curvature="0" />
    <path
       transform="translate(10.803496,-121.39586)"
       style="fill:url(#radialGradient4076);fill-opacity:1;stroke:none"
       d="m 250.4031,262.89789 c 0,2.46556 -1.37971,4.46428 -3.08167,4.46428 -1.70196,0 -3.08168,-1.99872 -3.08168,-4.46428 0,-2.46556 1.37972,-4.46429 3.08168,-4.46429 1.70196,0 3.08167,1.99873 3.08167,4.46429 z"
       id="path4074"
       inkscape:connector-curvature="0" />
    <path
       transform="translate(-7.1490128,-121.46303)"
       style="fill:url(#radialGradient4080);fill-opacity:1;stroke:none"
       d="m 250.4031,262.89789 c 0,2.46556 -1.37971,4.46428 -3.08167,4.46428 -1.70196,0 -3.08168,-1.99872 -3.08168,-4.46428 0,-2.46556 1.37972,-4.46429 3.08168,-4.46429 1.70196,0 3.08167,1.99873 3.08167,4.46429 z"
       id="path4078"
       inkscape:connector-curvature="0" />
    <path
       transform="translate(-2.3433549,-111.86966)"
       style="fill:url(#radialGradient4084);fill-opacity:1;stroke:none"
       d="m 250.4031,262.89789 c 0,2.46556 -1.37971,4.46428 -3.08167,4.46428 -1.70196,0 -3.08168,-1.99872 -3.08168,-4.46428 0,-2.46556 1.37972,-4.46429 3.08168,-4.46429 1.70196,0 3.08167,1.99873 3.08167,4.46429 z"
       id="path4082"
       inkscape:connector-curvature="0" />
    <path
       transform="translate(-0.06089934,-137.9798)"
       style="fill:url(#radialGradient4088);fill-opacity:1;stroke:none"
       d="m 250.4031,262.89789 c 0,2.46556 -1.37971,4.46428 -3.08167,4.46428 -1.70196,0 -3.08168,-1.99872 -3.08168,-4.46428 0,-2.46556 1.37972,-4.46429 3.08168,-4.46429 1.70196,0 3.08167,1.99873 3.08167,4.46429 z"
       id="path4086"
       inkscape:connector-curvature="0" />
    <path
       transform="translate(0.4249533,-90.780547)"
       style="fill:url(#radialGradient4092);fill-opacity:1;stroke:none"
       d="m 250.4031,262.89789 c 0,2.46556 -1.37971,4.46428 -3.08167,4.46428 -1.70196,0 -3.08168,-1.99872 -3.08168,-4.46428 0,-2.46556 1.37972,-4.46429 3.08168,-4.46429 1.70196,0 3.08167,1.99873 3.08167,4.46429 z"
       id="path4090"
       inkscape:connector-curvature="0" />
    <path
       transform="translate(-15.010829,-91.628856)"
       style="fill:url(#radialGradient4096);fill-opacity:1;stroke:none"
       d="m 250.4031,262.89789 c 0,2.46556 -1.37971,4.46428 -3.08167,4.46428 -1.70196,0 -3.08168,-1.99872 -3.08168,-4.46428 0,-2.46556 1.37972,-4.46429 3.08168,-4.46429 1.70196,0 3.08167,1.99873 3.08167,4.46429 z"
       id="path4094"
       inkscape:connector-curvature="0" />
    <path
       transform="translate(-14.508514,-134.95306)"
       style="fill:url(#radialGradient4100);fill-opacity:1;stroke:none"
       d="m 250.4031,262.89789 c 0,2.46556 -1.37971,4.46428 -3.08167,4.46428 -1.70196,0 -3.08168,-1.99872 -3.08168,-4.46428 0,-2.46556 1.37972,-4.46429 3.08168,-4.46429 1.70196,0 3.08167,1.99873 3.08167,4.46429 z"
       id="path4098"
       inkscape:connector-curvature="0" />
    <path
       transform="translate(10.970917,-94.075596)"
       style="fill:url(#radialGradient4104);fill-opacity:1;stroke:none"
       d="m 250.4031,262.89789 c 0,2.46556 -1.37971,4.46428 -3.08167,4.46428 -1.70196,0 -3.08168,-1.99872 -3.08168,-4.46428 0,-2.46556 1.37972,-4.46429 3.08168,-4.46429 1.70196,0 3.08167,1.99873 3.08167,4.46429 z"
       id="path4102"
       inkscape:connector-curvature="0" />
    <path
       transform="translate(11.516243,-143.26823)"
       style="fill:url(#radialGradient4108);fill-opacity:1;stroke:none"
       d="m 250.4031,262.89789 c 0,2.46556 -1.37971,4.46428 -3.08167,4.46428 -1.70196,0 -3.08168,-1.99872 -3.08168,-4.46428 0,-2.46556 1.37972,-4.46429 3.08168,-4.46429 1.70196,0 3.08167,1.99873 3.08167,4.46429 z"
       id="path4106"
       inkscape:connector-curvature="0" />
    <path
       transform="translate(123.95035,-27.995568)"
       style="fill:url(#radialGradient4112);fill-opacity:1;stroke:none"
       d="m 250.4031,262.89789 c 0,2.46556 -1.37971,4.46428 -3.08167,4.46428 -1.70196,0 -3.08168,-1.99872 -3.08168,-4.46428 0,-2.46556 1.37972,-4.46429 3.08168,-4.46429 1.70196,0 3.08167,1.99873 3.08167,4.46429 z"
       id="path4110"
       inkscape:connector-curvature="0" />
    <path
       transform="translate(105.03101,-18.460394)"
       style="fill:url(#radialGradient4116);fill-opacity:1;stroke:none"
       d="m 250.4031,262.89789 c 0,2.46556 -1.37971,4.46428 -3.08167,4.46428 -1.70196,0 -3.08168,-1.99872 -3.08168,-4.46428 0,-2.46556 1.37972,-4.46429 3.08168,-4.46429 1.70196,0 3.08167,1.99873 3.08167,4.46429 z"
       id="path4114"
       inkscape:connector-curvature="0" />
    <path
       transform="translate(119.39043,-85.559394)"
       style="fill:url(#radialGradient4120);fill-opacity:1;stroke:none"
       d="m 250.4031,262.89789 c 0,2.46556 -1.37971,4.46428 -3.08167,4.46428 -1.70196,0 -3.08168,-1.99872 -3.08168,-4.46428 0,-2.46556 1.37972,-4.46429 3.08168,-4.46429 1.70196,0 3.08167,1.99873 3.08167,4.46429 z"
       id="path4118"
       inkscape:connector-curvature="0" />
    <path
       transform="translate(89.730529,-82.839672)"
       style="fill:url(#radialGradient4124);fill-opacity:1;stroke:none"
       d="m 250.4031,262.89789 c 0,2.46556 -1.37971,4.46428 -3.08167,4.46428 -1.70196,0 -3.08168,-1.99872 -3.08168,-4.46428 0,-2.46556 1.37972,-4.46429 3.08168,-4.46429 1.70196,0 3.08167,1.99873 3.08167,4.46429 z"
       id="path4122"
       inkscape:connector-curvature="0" />
    <path
       transform="translate(75.523401,-110.74296)"
       style="fill:url(#radialGradient4128);fill-opacity:1;stroke:none"
       d="m 250.4031,262.89789 c 0,2.46556 -1.37971,4.46428 -3.08167,4.46428 -1.70196,0 -3.08168,-1.99872 -3.08168,-4.46428 0,-2.46556 1.37972,-4.46429 3.08168,-4.46429 1.70196,0 3.08167,1.99873 3.08167,4.46429 z"
       id="path4126"
       inkscape:connector-curvature="0" />
    <path
       transform="translate(95.775676,-119.34811)"
       style="fill:url(#radialGradient4132);fill-opacity:1;stroke:none"
       d="m 250.4031,262.89789 c 0,2.46556 -1.37971,4.46428 -3.08167,4.46428 -1.70196,0 -3.08168,-1.99872 -3.08168,-4.46428 0,-2.46556 1.37972,-4.46429 3.08168,-4.46429 1.70196,0 3.08167,1.99873 3.08167,4.46429 z"
       id="path4130"
       inkscape:connector-curvature="0" />
    <path
       transform="translate(128.36669,-128.63971)"
       style="fill:url(#radialGradient4136);fill-opacity:1;stroke:none"
       d="m 250.4031,262.89789 c 0,2.46556 -1.37971,4.46428 -3.08167,4.46428 -1.70196,0 -3.08168,-1.99872 -3.08168,-4.46428 0,-2.46556 1.37972,-4.46429 3.08168,-4.46429 1.70196,0 3.08167,1.99873 3.08167,4.46429 z"
       id="path4134"
       inkscape:connector-curvature="0" />
    <path
       transform="translate(98.761528,-62.960311)"
       style="fill:url(#radialGradient4140);fill-opacity:1;stroke:none"
       d="m 250.4031,262.89789 c 0,2.46556 -1.37971,4.46428 -3.08167,4.46428 -1.70196,0 -3.08168,-1.99872 -3.08168,-4.46428 0,-2.46556 1.37972,-4.46429 3.08168,-4.46429 1.70196,0 3.08167,1.99873 3.08167,4.46429 z"
       id="path4138"
       inkscape:connector-curvature="0" />
    <path
       transform="translate(187.23215,-20.357139)"
       style="fill:url(#radialGradient4144);fill-opacity:1;stroke:none"
       d="m 250.4031,262.89789 c 0,2.46556 -1.37971,4.46428 -3.08167,4.46428 -1.70196,0 -3.08168,-1.99872 -3.08168,-4.46428 0,-2.46556 1.37972,-4.46429 3.08168,-4.46429 1.70196,0 3.08167,1.99873 3.08167,4.46429 z"
       id="path4142"
       inkscape:connector-curvature="0" />
    <path
       transform="translate(199.42096,-99.162708)"
       style="fill:url(#radialGradient4148);fill-opacity:1;stroke:none"
       d="m 250.4031,262.89789 c 0,2.46556 -1.37971,4.46428 -3.08167,4.46428 -1.70196,0 -3.08168,-1.99872 -3.08168,-4.46428 0,-2.46556 1.37972,-4.46429 3.08168,-4.46429 1.70196,0 3.08167,1.99873 3.08167,4.46429 z"
       id="path4146"
       inkscape:connector-curvature="0" />
    <path
       transform="translate(180.98215,-82.589279)"
       style="fill:url(#radialGradient4152);fill-opacity:1;stroke:none"
       d="m 250.4031,262.89789 c 0,2.46556 -1.37971,4.46428 -3.08167,4.46428 -1.70196,0 -3.08168,-1.99872 -3.08168,-4.46428 0,-2.46556 1.37972,-4.46429 3.08168,-4.46429 1.70196,0 3.08167,1.99873 3.08167,4.46429 z"
       id="path4150"
       inkscape:connector-curvature="0" />
    <path
       transform="translate(240.02166,-114.89539)"
       style="fill:url(#radialGradient4156);fill-opacity:1;stroke:none"
       d="m 250.4031,262.89789 c 0,2.46556 -1.37971,4.46428 -3.08167,4.46428 -1.70196,0 -3.08168,-1.99872 -3.08168,-4.46428 0,-2.46556 1.37972,-4.46429 3.08168,-4.46429 1.70196,0 3.08167,1.99873 3.08167,4.46429 z"
       id="path4154"
       inkscape:connector-curvature="0" />
    <path
       transform="translate(240.26786,-45.624994)"
       style="fill:url(#radialGradient4160);fill-opacity:1;stroke:none"
       d="m 250.4031,262.89789 c 0,2.46556 -1.37971,4.46428 -3.08167,4.46428 -1.70196,0 -3.08168,-1.99872 -3.08168,-4.46428 0,-2.46556 1.37972,-4.46429 3.08168,-4.46429 1.70196,0 3.08167,1.99873 3.08167,4.46429 z"
       id="path4158"
       inkscape:connector-curvature="0" />
    <path
       transform="translate(197.41071,-40.178562)"
       style="fill:url(#radialGradient4164);fill-opacity:1;stroke:none"
       d="m 250.4031,262.89789 c 0,2.46556 -1.37971,4.46428 -3.08167,4.46428 -1.70196,0 -3.08168,-1.99872 -3.08168,-4.46428 0,-2.46556 1.37972,-4.46429 3.08168,-4.46429 1.70196,0 3.08167,1.99873 3.08167,4.46429 z"
       id="path4162"
       inkscape:connector-curvature="0" />
    <path
       transform="translate(224.82143,31.071435)"
       style="fill:url(#radialGradient4168);fill-opacity:1;stroke:none"
       d="m 250.4031,262.89789 c 0,2.46556 -1.37971,4.46428 -3.08167,4.46428 -1.70196,0 -3.08168,-1.99872 -3.08168,-4.46428 0,-2.46556 1.37972,-4.46429 3.08168,-4.46429 1.70196,0 3.08167,1.99873 3.08167,4.46429 z"
       id="path4166"
       inkscape:connector-curvature="0" />
    <path
       transform="translate(198.39286,45.89286)"
       style="fill:url(#radialGradient4172);fill-opacity:1;stroke:none"
       d="m 250.4031,262.89789 c 0,2.46556 -1.37971,4.46428 -3.08167,4.46428 -1.70196,0 -3.08168,-1.99872 -3.08168,-4.46428 0,-2.46556 1.37972,-4.46429 3.08168,-4.46429 1.70196,0 3.08167,1.99873 3.08167,4.46429 z"
       id="path4170"
       inkscape:connector-curvature="0" />
    <path
       transform="translate(166.51785,55.267866)"
       style="fill:url(#radialGradient4176);fill-opacity:1;stroke:none"
       d="m 250.4031,262.89789 c 0,2.46556 -1.37971,4.46428 -3.08167,4.46428 -1.70196,0 -3.08168,-1.99872 -3.08168,-4.46428 0,-2.46556 1.37972,-4.46429 3.08168,-4.46429 1.70196,0 3.08167,1.99873 3.08167,4.46429 z"
       id="path4174"
       inkscape:connector-curvature="0" />
  </g>
</svg>
